<?xml version="1.0" standalone="no"?>
<!DOCTYPE svg PUBLIC "-//W3C//DTD SVG 20010904//EN"
 "http://www.w3.org/TR/2001/REC-SVG-20010904/DTD/svg10.dtd">
<svg version="1.0" xmlns="http://www.w3.org/2000/svg"
 width="512.000000pt" height="512.000000pt" viewBox="0 0 512.000000 512.000000"
 preserveAspectRatio="xMidYMid meet">
<metadata>
Created by potrace 1.14, written by Peter Selinger 2001-2017
</metadata>
<g transform="translate(0.000000,512.000000) scale(0.100000,-0.100000)"
fill="#000000" stroke="none">
<path d="M2135 4953 c-39 -4 -259 -37 -320 -48 -63 -12 -253 -66 -320 -91 -38
-14 -81 -29 -95 -34 -88 -27 -430 -201 -430 -219 0 -3 21 -13 48 -20 120 -34
201 -73 243 -114 82 -82 103 -174 68 -302 -38 -139 -34 -154 128 -480 l142
-283 -82 -4 c-101 -4 -149 -26 -196 -92 -28 -39 -35 -58 -36 -104 -2 -32 2
-72 7 -90 9 -32 63 -94 125 -142 17 -14 83 -65 147 -115 l115 -90 36 -105 c51
-148 129 -316 197 -427 l20 -33 -424 -1 c-233 0 -431 -2 -440 -4 -123 -23
-212 -102 -252 -219 -13 -40 -16 -91 -16 -262 l0 -212 -38 -13 c-222 -73 -459
-319 -544 -565 -49 -141 -57 -214 -58 -481 l0 -243 2400 0 2401 0 -2 238 c-1
264 -9 343 -45 449 -34 104 -60 157 -120 249 -93 142 -264 284 -416 346 l-58
23 -1 208 c-1 114 -2 210 -3 215 -1 4 -6 22 -10 40 -19 80 -87 161 -171 202
l-50 25 -380 3 c-209 1 -410 3 -446 5 l-67 2 41 70 c54 95 128 261 172 386
l37 104 111 87 c62 49 125 98 142 110 111 86 155 163 141 250 -20 125 -105
188 -253 188 l-62 0 38 108 c21 59 74 206 118 327 44 121 85 250 92 286 26
153 6 308 -60 449 -22 46 -43 87 -47 90 -4 3 -20 24 -36 48 -27 40 -135 143
-175 166 -68 40 -130 70 -198 93 l-78 28 -500 0 c-275 1 -518 0 -540 -2z"/>
</g>
</svg>
